<?xml version="1.0" encoding="UTF-8"?> <svg xmlns="http://www.w3.org/2000/svg" xmlns:xlink="http://www.w3.org/1999/xlink" viewBox="0 0 512 408"><defs><style>.cls-1{fill:url(#Dégradé_sans_nom);}.cls-2{fill:#fff;stroke:#fff;}</style><linearGradient id="Dégradé_sans_nom" x1="51.55" y1="366.86" x2="498.95" y2="11.71" gradientTransform="matrix(1, 0, 0, -1, 0, 408.55)" gradientUnits="userSpaceOnUse"><stop offset="0" stop-color="#9013fe"></stop><stop offset="1" stop-color="#6610f2"></stop></linearGradient></defs><g id="Calque_2" data-name="Calque 2"><g id="Calque_1-2" data-name="Calque 1"><path class="cls-1" d="M56.48,53.32C55.51,25.58,77.13,0,106.34,0H405.7c29.21,0,50.82,25.58,49.86,53.32-.93,26.65.27,61.17,9,89.31S487.93,188.71,512,191v26c-24.07,2.29-38.77,20.14-47.48,48.37s-9.89,62.66-9,89.31c1,27.74-20.65,53.32-49.86,53.32H106.34c-29.21,0-50.82-25.58-49.86-53.32.93-26.65-.28-61.16-9-89.31S24.07,219.29,0,217V191c24.07-2.29,38.8-20.14,47.52-48.37S57.41,80,56.48,53.32Z"></path><path class="cls-2" d="M267.1,312.46c47.3,0,75.8-23.16,75.8-61.36,0-28.87-20.33-49.77-50.53-53.08v-1.21C314.55,193.21,332,172.6,332,149.6c0-32.79-25.88-54.14-65.32-54.14H177.9v217ZM212.41,123h45.91c25,0,39.13,11.13,39.13,31.28,0,21.5-16.48,33.53-46.37,33.53H212.41Zm0,162V213.51H258c32.66,0,49.61,12,49.61,35.49s-16.48,35.94-47.6,35.94Z"></path></g></g></svg> 